<svg width="38" height="37" viewBox="0 0 38 37" fill="none" xmlns="http://www.w3.org/2000/svg">
<path d="M36.7548 19.6503L36.7691 19.636C36.7911 19.611 36.8108 19.5841 36.8279 19.5556C36.8351 19.5485 36.8351 19.5413 36.8423 19.5341C36.8566 19.5054 36.8796 19.4753 36.8939 19.4466C36.8947 19.4412 36.8973 19.4361 36.9011 19.4322C36.9155 19.4035 36.9298 19.3734 36.9456 19.3375C36.9456 19.3304 36.9456 19.3304 36.9528 19.3232C36.9671 19.2945 36.9743 19.2572 36.9901 19.2213C36.9901 19.2141 36.9901 19.207 36.9972 19.207C37.0079 19.1738 37.0151 19.1397 37.0188 19.1051C37.0175 19.0922 37.0199 19.0793 37.0259 19.0678C37.0331 19.0391 37.0331 19.009 37.0403 18.9803C37.05 18.8978 37.05 18.8145 37.0403 18.7321C37.0391 18.7024 37.0342 18.673 37.0259 18.6445C37.0273 18.6317 37.0248 18.6187 37.0188 18.6072C37.0116 18.5699 37.0044 18.5412 36.9972 18.5054C36.9972 18.4982 36.9972 18.491 36.9901 18.491C36.9809 18.4559 36.9684 18.4218 36.9528 18.3891C36.9528 18.382 36.9528 18.382 36.9456 18.3748C36.9312 18.3461 36.9169 18.3088 36.9011 18.2801C36.9003 18.2747 36.8978 18.2696 36.8939 18.2657C36.8795 18.235 36.8622 18.2057 36.8423 18.1782C36.8351 18.171 36.8351 18.1639 36.8279 18.1567C36.8101 18.1287 36.7904 18.1018 36.7691 18.0763L36.7548 18.062C36.7277 18.0272 36.6985 17.9941 36.6672 17.963L29.4272 10.7258C29.1896 10.4979 28.8722 10.3722 28.543 10.3756C28.2138 10.379 27.899 10.5112 27.6663 10.744C27.4335 10.9768 27.3012 11.2916 27.2978 11.6208C27.2944 11.95 27.4201 12.2674 27.648 12.505L32.743 17.6H12.4879C12.1549 17.6 11.8356 17.7323 11.6001 17.9677C11.3647 18.2031 11.2324 18.5225 11.2324 18.8554C11.2324 19.1884 11.3647 19.5077 11.6001 19.7432C11.8356 19.9786 12.1549 20.1109 12.4879 20.1109H32.7502L27.6911 25.17C27.5743 25.2864 27.4815 25.4246 27.4181 25.5768C27.3547 25.729 27.3219 25.8922 27.3216 26.0571C27.3209 26.3901 27.4525 26.7097 27.6875 26.9456C27.8039 27.0624 27.9421 27.1552 28.0943 27.2186C28.2465 27.282 28.4097 27.3148 28.5745 27.3151C28.9075 27.3158 29.2271 27.1842 29.4631 26.9492L36.6586 19.7536C36.6959 19.7092 36.7246 19.6848 36.7548 19.6503Z" fill="#FBFCFD" stroke="#FBFCFD" stroke-width="0.206605" stroke-miterlimit="10"/>
<path d="M7.70693 3.43547H17.0777C17.4106 3.43547 17.73 3.3032 17.9654 3.06776C18.2008 2.83231 18.3331 2.51298 18.3331 2.18002C18.3331 1.84705 18.2008 1.52772 17.9654 1.29228C17.73 1.05683 17.4106 0.924561 17.0777 0.924561H7.70693C5.90033 0.927596 4.16858 1.64661 2.89112 2.92408C1.61365 4.20154 0.894637 5.93329 0.891602 7.73989L0.891602 29.9722C0.894637 31.7788 1.61365 33.5106 2.89112 34.788C4.16858 36.0655 5.90033 36.7845 7.70693 36.7876H16.9227C17.2557 36.7876 17.575 36.6553 17.8104 36.4198C18.0459 36.1844 18.1782 35.8651 18.1782 35.5321C18.1782 35.1991 18.0459 34.8798 17.8104 34.6444C17.575 34.4089 17.2557 34.2766 16.9227 34.2766H7.70693C6.56533 34.2766 5.47048 33.8231 4.66325 33.0159C3.85601 32.2087 3.40251 31.1138 3.40251 29.9722V7.73989C3.40251 6.59829 3.85601 5.50344 4.66325 4.69621C5.47048 3.88897 6.56533 3.43547 7.70693 3.43547Z" fill="#FBFCFD" stroke="#FBFCFD" stroke-width="0.206605" stroke-miterlimit="10"/>
</svg>
